<?xml version="1.0" standalone="no"?><!DOCTYPE svg PUBLIC "-//W3C//DTD SVG 1.1//EN" "http://www.w3.org/Graphics/SVG/1.1/DTD/svg11.dtd"><svg t="1716640912754" class="icon" viewBox="0 0 1024 1024" version="1.1" xmlns="http://www.w3.org/2000/svg" p-id="3474" xmlns:xlink="http://www.w3.org/1999/xlink" width="48" height="48"><path d="M827.732 884.451L197.879 885c-35.999 0-65.271-29.273-65.271-65.268V352.889c0-35.99 29.272-65.272 65.271-65.272l629.854-0.551c35.995 0 65.268 29.283 65.268 65.274v466.843c-0.001 35.995-29.273 65.268-65.269 65.268zM197.879 352.889v466.843l629.897-0.549-0.044-466.294H197.879z m0 0" fill="#8a8a8a" p-id="3475"></path><path d="M676.276 550.92H547.088V422.664h-69.86V550.92H349.331v69.861h127.896v128.62h69.86v-128.62h129.188V550.92z m-0.595-5.489M290.995 289.029v-82.688c0-35.992 29.271-65.273 65.27-65.273h313.08c35.995 0 65.268 29.282 65.268 65.273v81.284m-378.348-81.284v81.284H669.39l-0.045-81.284h-313.08z m0 0" fill="#8a8a8a" p-id="3476"></path></svg>